
<svg version="1.0" xmlns="http://www.w3.org/2000/svg"
 width="200.000000pt" height="200.000000pt" viewBox="0 0 200.000000 200.000000"
 preserveAspectRatio="xMidYMid meet">

<g transform="translate(0.000000,200.000000) scale(0.100000,-0.100000)"
fill="#000000" stroke="none">
<path d="M0 1000 l0 -1000 1000 0 1000 0 0 1000 0 1000 -1000 0 -1000 0 0
-1000z m1528 530 c5 -58 10 -65 30 -46 40 35 43 11 6 -58 -24 -46 -25 -53 -16
-115 9 -65 1 -235 -14 -276 -15 -41 -57 -86 -102 -109 -51 -25 -141 -50 -150
-41 -3 3 2 5 11 5 36 0 75 50 101 128 15 42 47 113 72 157 48 85 53 113 38
215 l-8 55 -17 -77 c-9 -43 -24 -89 -33 -103 -17 -25 -54 -33 -71 -16 -6 6
-10 -3 -11 -25 -1 -45 -36 -80 -87 -87 l-39 -6 26 26 c26 26 46 78 46 124 0
17 -10 33 -30 47 -39 29 -38 40 5 58 20 8 40 25 46 37 6 12 27 31 47 42 20 11
49 39 65 63 24 35 34 43 56 40 22 -3 26 -8 29 -38z m-569 -443 c-28 -19 -34
-30 -37 -62 -2 -36 1 -43 39 -70 22 -16 56 -47 75 -68 59 -65 41 -137 -46
-186 l-43 -24 22 30 c22 29 22 31 5 82 -9 28 -38 81 -65 118 -48 64 -53 77
-49 118 4 48 49 81 114 84 14 1 10 -5 -15 -22z m-94 -13 c-11 -8 -36 -25 -55
-37 -27 -18 -40 -38 -60 -92 -32 -86 -49 -117 -59 -111 -4 3 -18 -8 -30 -25
-13 -17 -29 -28 -36 -25 -7 2 -19 -2 -26 -10 -10 -12 -14 -12 -20 -2 -7 10
-11 10 -21 0 -6 -6 -20 -12 -29 -12 -9 0 -22 -7 -29 -15 -7 -8 -18 -15 -24
-14 -7 0 -6 2 2 6 6 2 10 9 7 13 -3 5 5 14 17 21 12 7 28 17 35 23 24 22 40
31 87 56 38 20 55 37 78 80 35 66 92 127 133 146 40 18 55 17 30 -2z m-136
-284 c-12 -34 -15 -36 -23 -15 -3 8 2 21 10 30 22 22 24 19 13 -15z m-29 -18
c0 -14 -36 -43 -43 -35 -4 3 -18 -4 -32 -17 -14 -13 -33 -24 -43 -25 -10 -1
-40 -16 -68 -35 l-49 -33 35 37 c19 20 69 54 110 75 80 42 90 46 90 33z m174
-240 c9 -18 31 -42 49 -53 l32 -21 -39 6 c-43 6 -51 14 -65 63 -5 18 -19 46
-31 63 -21 30 -22 32 -4 51 18 20 18 20 29 -28 6 -26 19 -63 29 -81z m-302
-49 l21 -23 -24 0 c-14 0 -30 5 -37 12 -16 16 -15 73 1 101 11 20 12 19 15
-23 2 -29 11 -53 24 -67z m774 22 c27 -48 28 -60 1 -49 -17 6 -51 94 -37 94 5
0 21 -20 36 -45z m102 -42 l37 -32 -35 3 c-19 2 -38 4 -42 5 -5 0 -7 25 -7 54
1 28 4 41 6 27 2 -14 21 -39 41 -57z"/>
<path d="M1405 1451 c-6 -11 9 -23 19 -14 9 9 7 23 -3 23 -6 0 -12 -4 -16 -9z"/>
<path d="M1295 1370 c-19 -8 -19 -9 3 -9 12 -1 22 4 22 9 0 6 -1 10 -2 9 -2 0
-12 -4 -23 -9z"/>
<path d="M981 794 c0 -11 3 -14 6 -6 3 7 2 16 -1 19 -3 4 -6 -2 -5 -13z"/>
</g>
</svg>
